<svg id="svg" version="1.1" xmlns="http://www.w3.org/2000/svg" xmlns:xlink="http://www.w3.org/1999/xlink" width="400" height="400" viewBox="0, 0, 400,400"><g id="svgg"><path id="path0" d="M175.307 130.800 C 174.375 130.910,173.287 131.282,172.889 131.626 C 172.491 131.970,171.858 132.369,171.482 132.513 C 171.107 132.657,170.800 133.011,170.800 133.299 C 170.800 133.587,170.440 134.083,170.000 134.400 C 169.530 134.739,169.200 135.435,169.200 136.088 C 169.200 136.700,169.020 137.200,168.800 137.200 C 168.580 137.200,168.400 138.089,168.400 139.176 C 168.400 140.263,168.580 141.264,168.800 141.400 C 169.020 141.536,169.200 141.997,169.200 142.424 C 169.200 142.851,169.391 143.200,169.624 143.200 C 169.857 143.200,169.942 143.370,169.814 143.577 C 169.549 144.006,172.846 147.445,188.400 162.972 C 195.202 169.761,199.039 173.598,205.828 180.400 C 214.090 188.677,216.231 190.804,221.112 195.581 L 225.624 199.998 220.312 205.230 C 213.952 211.493,215.165 210.281,190.100 235.398 C 179.045 246.476,170.000 255.823,170.000 256.170 C 170.000 256.516,169.820 256.800,169.600 256.800 C 169.380 256.800,169.200 257.340,169.200 258.000 C 169.200 258.660,169.020 259.200,168.800 259.200 C 168.580 259.200,168.400 259.920,168.400 260.800 C 168.400 261.680,168.580 262.400,168.800 262.400 C 169.020 262.400,169.200 262.990,169.200 263.712 C 169.200 264.565,169.480 265.225,170.000 265.600 C 170.440 265.917,170.800 266.497,170.800 266.888 C 170.800 267.333,171.100 267.600,171.600 267.600 C 172.040 267.600,172.400 267.751,172.400 267.936 C 172.400 268.120,172.858 268.480,173.419 268.736 C 174.674 269.308,180.800 269.361,180.800 268.800 C 180.800 268.580,181.160 268.400,181.600 268.400 C 182.040 268.400,182.400 268.220,182.400 268.000 C 182.400 267.780,182.558 267.600,182.752 267.600 C 183.169 267.600,244.000 206.880,244.000 206.463 C 244.000 206.306,244.360 205.917,244.800 205.600 C 245.240 205.283,245.600 204.693,245.600 204.288 C 245.600 203.884,245.780 203.664,246.000 203.800 C 246.602 204.172,246.511 196.987,245.900 195.899 C 245.625 195.409,245.085 194.716,244.700 194.357 C 244.315 193.999,244.000 193.593,244.000 193.455 C 244.000 193.018,183.868 133.055,182.400 132.028 C 180.877 130.962,178.061 130.475,175.307 130.800 " stroke="none" fill="#3c94cc" fill-rule="evenodd"></path><path id="path1" d="M178.800 0.451 C 176.710 0.648,173.695 0.912,172.100 1.036 C 170.505 1.161,169.200 1.429,169.200 1.632 C 169.200 1.834,168.221 2.000,167.024 2.000 C 165.827 2.000,164.736 2.180,164.600 2.400 C 164.464 2.620,163.463 2.800,162.376 2.800 C 161.289 2.800,160.400 2.980,160.400 3.200 C 160.400 3.420,159.590 3.600,158.600 3.600 C 157.610 3.600,156.800 3.780,156.800 4.000 C 156.800 4.220,156.091 4.400,155.224 4.400 C 154.357 4.400,153.536 4.580,153.400 4.800 C 153.264 5.020,152.454 5.200,151.600 5.200 C 150.746 5.200,149.936 5.380,149.800 5.600 C 149.664 5.820,149.023 6.000,148.376 6.000 C 147.729 6.000,147.200 6.180,147.200 6.400 C 147.200 6.620,146.570 6.800,145.800 6.800 C 145.030 6.800,144.400 6.980,144.400 7.200 C 144.400 7.420,143.860 7.600,143.200 7.600 C 142.540 7.600,142.000 7.780,142.000 8.000 C 142.000 8.220,141.280 8.400,140.400 8.400 C 139.520 8.400,138.800 8.580,138.800 8.800 C 138.800 9.020,138.361 9.200,137.824 9.200 C 137.287 9.200,136.736 9.380,136.600 9.600 C 136.464 9.820,136.010 10.000,135.590 10.000 C 134.459 10.000,130.504 11.328,128.305 12.447 C 127.923 12.641,127.338 12.800,127.005 12.800 C 126.672 12.800,126.400 12.980,126.400 13.200 C 126.400 13.420,125.860 13.600,125.200 13.600 C 124.540 13.600,124.000 13.780,124.000 14.000 C 124.000 14.220,123.640 14.400,123.200 14.400 C 122.760 14.400,122.400 14.580,122.400 14.800 C 122.400 15.020,121.961 15.200,121.424 15.200 C 120.887 15.200,120.336 15.380,120.200 15.600 C 120.064 15.820,119.603 16.000,119.176 16.000 C 118.749 16.000,118.400 16.180,118.400 16.400 C 118.400 16.620,118.040 16.800,117.600 16.800 C 117.160 16.800,116.800 16.980,116.800 17.200 C 116.800 17.420,116.440 17.600,116.000 17.600 C 115.560 17.600,115.200 17.780,115.200 18.000 C 115.200 18.220,114.851 18.400,114.424 18.400 C 113.997 18.400,113.536 18.580,113.400 18.800 C 113.264 19.020,112.803 19.200,112.376 19.200 C 111.949 19.200,111.600 19.359,111.600 19.553 C 111.600 19.748,111.285 20.007,110.900 20.129 C 109.964 20.425,107.834 21.724,107.667 22.100 C 107.593 22.265,107.188 22.400,106.767 22.400 C 106.345 22.400,106.000 22.580,106.000 22.800 C 106.000 23.020,105.640 23.200,105.200 23.200 C 104.760 23.200,104.400 23.380,104.400 23.600 C 104.400 23.820,104.040 24.000,103.600 24.000 C 103.160 24.000,102.800 24.180,102.800 24.400 C 102.800 24.620,102.440 24.800,102.000 24.800 C 101.560 24.800,101.200 24.980,101.200 25.200 C 101.200 25.420,100.930 25.600,100.600 25.600 C 100.270 25.600,100.000 25.780,100.000 26.000 C 100.000 26.220,99.730 26.400,99.400 26.400 C 99.070 26.400,98.800 26.580,98.800 26.800 C 98.800 27.020,98.482 27.200,98.093 27.200 C 97.704 27.200,96.723 27.650,95.914 28.200 C 95.105 28.750,94.293 29.200,94.110 29.200 C 93.926 29.200,93.517 29.560,93.200 30.000 C 92.883 30.440,92.303 30.800,91.912 30.800 C 91.520 30.800,91.200 30.958,91.200 31.151 C 91.200 31.345,90.660 31.727,90.000 32.000 C 89.340 32.273,88.800 32.655,88.800 32.849 C 88.800 33.042,88.575 33.200,88.300 33.201 C 88.025 33.201,87.170 33.741,86.400 34.400 C 85.630 35.059,84.815 35.599,84.588 35.599 C 84.362 35.600,83.917 35.960,83.600 36.400 C 83.283 36.840,82.838 37.200,82.612 37.200 C 82.385 37.201,81.660 37.666,81.000 38.235 C 80.340 38.804,79.305 39.563,78.699 39.921 C 78.094 40.280,77.497 40.894,77.373 41.287 C 77.248 41.679,76.880 42.000,76.555 42.000 C 76.230 42.000,75.530 42.405,75.001 42.900 C 73.802 44.022,73.286 44.423,71.904 45.310 C 71.301 45.697,70.041 46.778,69.104 47.712 C 68.167 48.646,66.770 49.856,66.000 50.400 C 65.230 50.944,63.610 52.435,62.400 53.715 C 59.604 56.671,56.671 59.604,53.715 62.400 C 52.435 63.610,50.944 65.230,50.400 66.000 C 49.856 66.770,48.646 68.167,47.712 69.104 C 46.778 70.041,45.697 71.301,45.310 71.904 C 44.423 73.286,44.022 73.802,42.900 75.001 C 42.405 75.530,42.000 76.230,42.000 76.555 C 42.000 76.880,41.679 77.248,41.287 77.373 C 40.894 77.497,40.280 78.094,39.921 78.699 C 39.563 79.305,38.804 80.340,38.235 81.000 C 37.666 81.660,37.201 82.385,37.200 82.612 C 37.200 82.838,36.840 83.283,36.400 83.600 C 35.960 83.917,35.600 84.362,35.599 84.588 C 35.599 84.815,35.059 85.630,34.400 86.400 C 33.741 87.170,33.201 88.025,33.201 88.300 C 33.200 88.575,33.042 88.800,32.849 88.800 C 32.655 88.800,32.273 89.340,32.000 90.000 C 31.727 90.660,31.345 91.200,31.151 91.200 C 30.958 91.200,30.800 91.520,30.800 91.912 C 30.800 92.303,30.440 92.883,30.000 93.200 C 29.560 93.517,29.200 93.926,29.200 94.110 C 29.200 94.293,28.750 95.105,28.200 95.914 C 27.650 96.723,27.200 97.704,27.200 98.093 C 27.200 98.482,27.020 98.800,26.800 98.800 C 26.580 98.800,26.400 99.070,26.400 99.400 C 26.400 99.730,26.220 100.000,26.000 100.000 C 25.780 100.000,25.600 100.270,25.600 100.600 C 25.600 100.930,25.420 101.200,25.200 101.200 C 24.980 101.200,24.800 101.560,24.800 102.000 C 24.800 102.440,24.620 102.800,24.400 102.800 C 24.180 102.800,24.000 103.160,24.000 103.600 C 24.000 104.040,23.820 104.400,23.600 104.400 C 23.380 104.400,23.200 104.760,23.200 105.200 C 23.200 105.640,23.020 106.000,22.800 106.000 C 22.580 106.000,22.400 106.345,22.400 106.767 C 22.400 107.188,22.265 107.593,22.100 107.667 C 21.724 107.834,20.425 109.964,20.129 110.900 C 20.007 111.285,19.748 111.600,19.553 111.600 C 19.359 111.600,19.200 111.949,19.200 112.376 C 19.200 112.803,19.020 113.264,18.800 113.400 C 18.580 113.536,18.400 113.997,18.400 114.424 C 18.400 114.851,18.220 115.200,18.000 115.200 C 17.780 115.200,17.600 115.560,17.600 116.000 C 17.600 116.440,17.420 116.800,17.200 116.800 C 16.980 116.800,16.800 117.160,16.800 117.600 C 16.800 118.040,16.620 118.400,16.400 118.400 C 16.180 118.400,16.000 118.749,16.000 119.176 C 16.000 119.603,15.820 120.064,15.600 120.200 C 15.380 120.336,15.200 120.887,15.200 121.424 C 15.200 121.961,15.020 122.400,14.800 122.400 C 14.580 122.400,14.400 122.760,14.400 123.200 C 14.400 123.640,14.220 124.000,14.000 124.000 C 13.780 124.000,13.600 124.540,13.600 125.200 C 13.600 125.860,13.420 126.400,13.200 126.400 C 12.980 126.400,12.800 126.672,12.800 127.005 C 12.800 127.338,12.641 127.923,12.447 128.305 C 11.328 130.504,10.000 134.459,10.000 135.590 C 10.000 136.010,9.820 136.464,9.600 136.600 C 9.380 136.736,9.200 137.287,9.200 137.824 C 9.200 138.361,9.020 138.800,8.800 138.800 C 8.580 138.800,8.400 139.520,8.400 140.400 C 8.400 141.280,8.220 142.000,8.000 142.000 C 7.780 142.000,7.600 142.540,7.600 143.200 C 7.600 143.860,7.420 144.400,7.200 144.400 C 6.980 144.400,6.800 145.030,6.800 145.800 C 6.800 146.570,6.620 147.200,6.400 147.200 C 6.180 147.200,6.000 147.729,6.000 148.376 C 6.000 149.023,5.820 149.664,5.600 149.800 C 5.380 149.936,5.200 150.746,5.200 151.600 C 5.200 152.454,5.020 153.264,4.800 153.400 C 4.580 153.536,4.400 154.357,4.400 155.224 C 4.400 156.091,4.220 156.800,4.000 156.800 C 3.780 156.800,3.600 157.610,3.600 158.600 C 3.600 159.590,3.420 160.400,3.200 160.400 C 2.980 160.400,2.800 161.289,2.800 162.376 C 2.800 163.463,2.620 164.464,2.400 164.600 C 2.180 164.736,2.000 165.827,2.000 167.024 C 2.000 168.221,1.834 169.200,1.632 169.200 C 1.429 169.200,1.168 170.505,1.052 172.100 C 0.936 173.695,0.640 177.340,0.395 180.200 C -0.219 187.347,0.051 224.211,0.722 224.882 C 0.999 225.159,1.200 226.504,1.200 228.080 C 1.200 229.627,1.373 230.800,1.600 230.800 C 1.820 230.800,2.000 231.779,2.000 232.976 C 2.000 234.173,2.180 235.264,2.400 235.400 C 2.620 235.536,2.800 236.537,2.800 237.624 C 2.800 238.711,2.980 239.600,3.200 239.600 C 3.420 239.600,3.600 240.410,3.600 241.400 C 3.600 242.390,3.780 243.200,4.000 243.200 C 4.220 243.200,4.400 243.909,4.400 244.776 C 4.400 245.643,4.580 246.464,4.800 246.600 C 5.020 246.736,5.200 247.647,5.200 248.624 C 5.200 249.601,5.380 250.400,5.600 250.400 C 5.820 250.400,6.000 250.940,6.000 251.600 C 6.000 252.260,6.180 252.800,6.400 252.800 C 6.620 252.800,6.800 253.419,6.800 254.176 C 6.800 254.933,6.980 255.664,7.200 255.800 C 7.420 255.936,7.600 256.577,7.600 257.224 C 7.600 257.871,7.780 258.400,8.000 258.400 C 8.220 258.400,8.400 259.030,8.400 259.800 C 8.400 260.570,8.580 261.200,8.800 261.200 C 9.020 261.200,9.200 261.740,9.200 262.400 C 9.200 263.060,9.360 263.600,9.555 263.600 C 9.750 263.600,10.035 264.436,10.188 265.459 C 10.341 266.481,10.632 267.651,10.833 268.059 C 11.035 268.466,11.380 269.158,11.600 269.595 C 11.820 270.032,12.000 270.580,12.000 270.814 C 12.000 271.048,12.360 271.984,12.800 272.894 C 13.240 273.805,13.600 274.876,13.600 275.275 C 13.600 275.674,13.780 276.000,14.000 276.000 C 14.220 276.000,14.400 276.360,14.400 276.800 C 14.400 277.240,14.580 277.600,14.800 277.600 C 15.020 277.600,15.200 278.039,15.200 278.576 C 15.200 279.113,15.380 279.664,15.600 279.800 C 15.820 279.936,16.000 280.397,16.000 280.824 C 16.000 281.251,16.180 281.600,16.400 281.600 C 16.620 281.600,16.800 281.960,16.800 282.400 C 16.800 282.840,16.980 283.200,17.200 283.200 C 17.420 283.200,17.600 283.560,17.600 284.000 C 17.600 284.440,17.780 284.800,18.000 284.800 C 18.220 284.800,18.400 285.149,18.400 285.576 C 18.400 286.003,18.580 286.464,18.800 286.600 C 19.020 286.736,19.200 287.197,19.200 287.624 C 19.200 288.051,19.346 288.400,19.525 288.400 C 19.704 288.400,20.098 289.030,20.400 289.800 C 20.702 290.570,21.096 291.200,21.275 291.200 C 21.454 291.200,21.600 291.470,21.600 291.800 C 21.600 292.130,21.780 292.400,22.000 292.400 C 22.220 292.400,22.400 292.760,22.400 293.200 C 22.400 293.640,22.580 294.000,22.800 294.000 C 23.020 294.000,23.200 294.360,23.200 294.800 C 23.200 295.240,23.380 295.600,23.600 295.600 C 23.820 295.600,24.000 295.960,24.000 296.400 C 24.000 296.840,24.180 297.200,24.400 297.200 C 24.620 297.200,24.800 297.560,24.800 298.000 C 24.800 298.440,24.980 298.800,25.200 298.800 C 25.420 298.800,25.600 299.036,25.600 299.325 C 25.600 299.613,25.960 300.236,26.400 300.708 C 26.840 301.180,27.200 301.802,27.200 302.090 C 27.200 302.379,27.650 303.277,28.200 304.086 C 28.750 304.895,29.200 305.719,29.200 305.917 C 29.200 306.114,29.560 306.602,30.000 307.000 C 30.440 307.398,30.800 307.966,30.800 308.262 C 30.800 308.558,30.958 308.800,31.151 308.800 C 31.345 308.800,31.727 309.340,32.000 310.000 C 32.273 310.660,32.655 311.200,32.849 311.200 C 33.042 311.200,33.200 311.425,33.201 311.700 C 33.201 311.975,33.741 312.830,34.400 313.600 C 35.059 314.370,35.599 315.185,35.599 315.412 C 35.600 315.638,35.960 316.083,36.400 316.400 C 36.840 316.717,37.200 317.257,37.200 317.600 C 37.200 317.943,37.560 318.483,38.000 318.800 C 38.440 319.117,38.800 319.607,38.800 319.888 C 38.800 320.170,38.980 320.400,39.200 320.400 C 39.420 320.400,39.600 320.598,39.600 320.840 C 39.600 321.081,40.140 321.783,40.800 322.400 C 41.460 323.017,42.000 323.637,42.000 323.779 C 42.000 323.920,42.405 324.470,42.900 324.999 C 44.010 326.186,44.426 326.718,45.258 328.017 C 45.617 328.577,46.920 330.086,48.155 331.371 C 49.390 332.656,50.400 333.870,50.400 334.069 C 50.400 334.268,52.065 336.044,54.100 338.015 C 58.794 342.563,59.505 343.273,62.304 346.210 C 63.567 347.535,65.230 349.063,66.000 349.605 C 66.770 350.147,68.349 351.538,69.509 352.695 C 70.668 353.853,71.771 354.800,71.958 354.800 C 72.146 354.800,73.087 355.520,74.049 356.400 C 75.012 357.280,75.925 358.000,76.079 358.000 C 76.233 358.000,76.804 358.405,77.347 358.900 C 79.223 360.608,80.010 361.200,80.405 361.200 C 80.622 361.200,80.800 361.350,80.800 361.532 C 80.800 361.715,81.295 362.119,81.900 362.430 C 82.505 362.740,83.291 363.311,83.647 363.697 C 84.003 364.084,84.453 364.400,84.647 364.401 C 84.841 364.401,85.630 364.941,86.400 365.600 C 87.170 366.259,87.943 366.799,88.117 366.799 C 88.291 366.800,88.820 367.160,89.292 367.600 C 89.764 368.040,90.387 368.400,90.675 368.400 C 90.964 368.400,91.200 368.580,91.200 368.800 C 91.200 369.020,91.520 369.200,91.912 369.200 C 92.303 369.200,92.883 369.560,93.200 370.000 C 93.517 370.440,93.973 370.800,94.213 370.800 C 94.453 370.800,94.998 371.121,95.425 371.513 C 95.851 371.905,96.830 372.530,97.600 372.901 C 98.370 373.272,99.540 373.939,100.200 374.385 C 100.860 374.830,101.715 375.196,102.100 375.197 C 102.485 375.199,102.800 375.380,102.800 375.600 C 102.800 375.820,103.160 376.000,103.600 376.000 C 104.040 376.000,104.400 376.180,104.400 376.400 C 104.400 376.620,104.760 376.800,105.200 376.800 C 105.640 376.800,106.000 376.980,106.000 377.200 C 106.000 377.420,106.345 377.600,106.767 377.600 C 107.188 377.600,107.593 377.735,107.667 377.900 C 107.834 378.276,109.964 379.575,110.900 379.871 C 111.285 379.993,111.600 380.252,111.600 380.447 C 111.600 380.641,111.949 380.800,112.376 380.800 C 112.803 380.800,113.264 380.980,113.400 381.200 C 113.536 381.420,113.997 381.600,114.424 381.600 C 114.851 381.600,115.200 381.780,115.200 382.000 C 115.200 382.220,115.560 382.400,116.000 382.400 C 116.440 382.400,116.800 382.580,116.800 382.800 C 116.800 383.020,117.160 383.200,117.600 383.200 C 118.040 383.200,118.400 383.380,118.400 383.600 C 118.400 383.820,118.749 384.000,119.176 384.000 C 119.603 384.000,120.064 384.180,120.200 384.400 C 120.336 384.620,120.887 384.800,121.424 384.800 C 121.961 384.800,122.400 384.980,122.400 385.200 C 122.400 385.420,122.760 385.600,123.200 385.600 C 123.640 385.600,124.000 385.780,124.000 386.000 C 124.000 386.220,124.540 386.400,125.200 386.400 C 125.860 386.400,126.400 386.580,126.400 386.800 C 126.400 387.020,126.760 387.200,127.200 387.200 C 127.640 387.200,128.000 387.380,128.000 387.600 C 128.000 387.820,128.362 388.000,128.805 388.000 C 129.248 388.000,129.968 388.180,130.405 388.400 C 130.842 388.620,131.558 388.980,131.995 389.200 C 132.432 389.420,133.064 389.600,133.400 389.600 C 133.736 389.600,134.323 389.774,134.705 389.987 C 135.941 390.677,139.196 391.600,140.390 391.600 C 141.030 391.600,141.664 391.780,141.800 392.000 C 141.936 392.220,142.476 392.400,143.000 392.400 C 143.524 392.400,144.064 392.580,144.200 392.800 C 144.336 393.020,145.067 393.200,145.824 393.200 C 146.581 393.200,147.200 393.380,147.200 393.600 C 147.200 393.820,147.729 394.000,148.376 394.000 C 149.023 394.000,149.664 394.180,149.800 394.400 C 149.936 394.620,150.746 394.800,151.600 394.800 C 152.454 394.800,153.264 394.980,153.400 395.200 C 153.536 395.420,154.357 395.600,155.224 395.600 C 156.091 395.600,156.800 395.780,156.800 396.000 C 156.800 396.220,157.610 396.400,158.600 396.400 C 159.590 396.400,160.400 396.580,160.400 396.800 C 160.400 397.020,161.289 397.200,162.376 397.200 C 163.463 397.200,164.464 397.380,164.600 397.600 C 164.736 397.820,165.827 398.000,167.024 398.000 C 168.221 398.000,169.200 398.166,169.200 398.368 C 169.200 398.571,170.505 398.832,172.100 398.948 C 173.695 399.064,177.340 399.360,180.200 399.605 C 187.347 400.219,224.211 399.949,224.882 399.278 C 225.159 399.001,226.504 398.800,228.080 398.800 C 229.627 398.800,230.800 398.627,230.800 398.400 C 230.800 398.178,231.867 398.000,233.200 398.000 C 234.533 398.000,235.600 397.822,235.600 397.600 C 235.600 397.380,236.500 397.200,237.600 397.200 C 238.700 397.200,239.600 397.020,239.600 396.800 C 239.600 396.580,240.410 396.400,241.400 396.400 C 242.390 396.400,243.200 396.220,243.200 396.000 C 243.200 395.780,243.909 395.600,244.776 395.600 C 245.643 395.600,246.464 395.420,246.600 395.200 C 246.736 394.980,247.647 394.800,248.624 394.800 C 249.601 394.800,250.400 394.620,250.400 394.400 C 250.400 394.180,250.940 394.000,251.600 394.000 C 252.260 394.000,252.800 393.820,252.800 393.600 C 252.800 393.380,253.520 393.200,254.400 393.200 C 255.280 393.200,256.000 393.020,256.000 392.800 C 256.000 392.580,256.540 392.400,257.200 392.400 C 257.860 392.400,258.400 392.220,258.400 392.000 C 258.400 391.780,258.934 391.600,259.586 391.600 C 260.800 391.600,264.049 390.682,265.295 389.987 C 265.677 389.774,266.341 389.600,266.771 389.600 C 267.201 389.600,267.664 389.420,267.800 389.200 C 267.936 388.980,268.487 388.800,269.024 388.800 C 269.561 388.800,270.000 388.620,270.000 388.400 C 270.000 388.180,270.355 388.000,270.788 388.000 C 271.221 388.000,272.217 387.640,273.000 387.200 C 273.783 386.760,274.779 386.400,275.212 386.400 C 275.645 386.400,276.000 386.220,276.000 386.000 C 276.000 385.780,276.360 385.600,276.800 385.600 C 277.240 385.600,277.600 385.420,277.600 385.200 C 277.600 384.980,278.039 384.800,278.576 384.800 C 279.113 384.800,279.664 384.620,279.800 384.400 C 279.936 384.180,280.397 384.000,280.824 384.000 C 281.251 384.000,281.600 383.820,281.600 383.600 C 281.600 383.380,281.960 383.200,282.400 383.200 C 282.840 383.200,283.200 383.020,283.200 382.800 C 283.200 382.580,283.560 382.400,284.000 382.400 C 284.440 382.400,284.800 382.220,284.800 382.000 C 284.800 381.780,285.149 381.600,285.576 381.600 C 286.003 381.600,286.464 381.420,286.600 381.200 C 286.736 380.980,287.182 380.800,287.590 380.800 C 287.999 380.800,288.393 380.665,288.467 380.500 C 288.540 380.335,289.455 379.767,290.500 379.237 C 291.545 378.708,292.400 378.123,292.400 377.937 C 292.400 377.752,292.760 377.600,293.200 377.600 C 293.640 377.600,294.000 377.420,294.000 377.200 C 294.000 376.980,294.360 376.800,294.800 376.800 C 295.240 376.800,295.600 376.620,295.600 376.400 C 295.600 376.180,295.960 376.000,296.400 376.000 C 296.840 376.000,297.200 375.820,297.200 375.600 C 297.200 375.380,297.487 375.200,297.838 375.200 C 298.413 375.200,300.700 374.108,301.200 373.595 C 301.310 373.482,302.255 372.958,303.300 372.432 C 304.345 371.905,305.200 371.323,305.200 371.137 C 305.200 370.952,305.436 370.800,305.725 370.800 C 306.013 370.800,306.636 370.440,307.108 370.000 C 307.580 369.560,308.154 369.200,308.383 369.200 C 308.612 369.200,308.800 369.020,308.800 368.800 C 308.800 368.580,309.036 368.400,309.325 368.400 C 309.613 368.400,310.236 368.040,310.708 367.600 C 311.180 367.160,311.756 366.800,311.987 366.800 C 312.218 366.800,312.972 366.260,313.663 365.600 C 314.354 364.940,315.122 364.400,315.371 364.400 C 315.620 364.400,316.083 364.040,316.400 363.600 C 316.717 363.160,317.257 362.800,317.600 362.800 C 317.943 362.800,318.483 362.440,318.800 362.000 C 319.117 361.560,319.607 361.200,319.888 361.200 C 320.170 361.200,320.400 361.020,320.400 360.800 C 320.400 360.580,320.588 360.400,320.818 360.400 C 321.048 360.400,321.686 359.950,322.236 359.400 C 322.786 358.850,323.364 358.400,323.520 358.400 C 323.677 358.400,324.569 357.680,325.503 356.800 C 326.437 355.920,327.360 355.200,327.554 355.200 C 327.748 355.200,329.112 354.030,330.585 352.600 C 332.058 351.170,333.426 350.000,333.626 350.000 C 333.826 350.000,335.683 348.271,337.754 346.159 C 342.305 341.514,341.514 342.305,346.159 337.754 C 348.271 335.683,350.000 333.826,350.000 333.626 C 350.000 333.426,351.170 332.058,352.600 330.585 C 354.030 329.112,355.200 327.748,355.200 327.554 C 355.200 327.360,355.920 326.437,356.800 325.503 C 357.680 324.569,358.400 323.677,358.400 323.520 C 358.400 323.364,358.850 322.786,359.400 322.236 C 359.950 321.686,360.400 321.048,360.400 320.818 C 360.400 320.588,360.580 320.400,360.800 320.400 C 361.020 320.400,361.200 320.170,361.200 319.888 C 361.200 319.607,361.560 319.117,362.000 318.800 C 362.440 318.483,362.800 317.943,362.800 317.600 C 362.800 317.257,363.160 316.717,363.600 316.400 C 364.040 316.083,364.400 315.620,364.400 315.371 C 364.400 315.122,364.940 314.354,365.600 313.663 C 366.260 312.972,366.800 312.218,366.800 311.987 C 366.800 311.756,367.160 311.180,367.600 310.708 C 368.040 310.236,368.400 309.613,368.400 309.325 C 368.400 309.036,368.580 308.800,368.800 308.800 C 369.020 308.800,369.200 308.612,369.200 308.383 C 369.200 308.154,369.560 307.580,370.000 307.108 C 370.440 306.636,370.800 306.013,370.800 305.725 C 370.800 305.436,370.952 305.200,371.137 305.200 C 371.323 305.200,371.905 304.345,372.432 303.300 C 372.958 302.255,373.482 301.310,373.595 301.200 C 374.108 300.700,375.200 298.413,375.200 297.838 C 375.200 297.487,375.380 297.200,375.600 297.200 C 375.820 297.200,376.000 296.840,376.000 296.400 C 376.000 295.960,376.180 295.600,376.400 295.600 C 376.620 295.600,376.800 295.240,376.800 294.800 C 376.800 294.360,376.980 294.000,377.200 294.000 C 377.420 294.000,377.600 293.640,377.600 293.200 C 377.600 292.760,377.752 292.400,377.937 292.400 C 378.123 292.400,378.708 291.545,379.237 290.500 C 379.767 289.455,380.335 288.540,380.500 288.467 C 380.665 288.393,380.800 287.999,380.800 287.590 C 380.800 287.182,380.980 286.736,381.200 286.600 C 381.420 286.464,381.600 286.003,381.600 285.576 C 381.600 285.149,381.780 284.800,382.000 284.800 C 382.220 284.800,382.400 284.440,382.400 284.000 C 382.400 283.560,382.580 283.200,382.800 283.200 C 383.020 283.200,383.200 282.840,383.200 282.400 C 383.200 281.960,383.380 281.600,383.600 281.600 C 383.820 281.600,384.000 281.251,384.000 280.824 C 384.000 280.397,384.180 279.936,384.400 279.800 C 384.620 279.664,384.800 279.113,384.800 278.576 C 384.800 278.039,384.980 277.600,385.200 277.600 C 385.420 277.600,385.600 277.240,385.600 276.800 C 385.600 276.360,385.780 276.000,386.000 276.000 C 386.220 276.000,386.400 275.645,386.400 275.212 C 386.400 274.779,386.760 273.783,387.200 273.000 C 387.640 272.217,388.000 271.221,388.000 270.788 C 388.000 270.355,388.180 270.000,388.400 270.000 C 388.620 270.000,388.800 269.561,388.800 269.024 C 388.800 268.487,388.980 267.936,389.200 267.800 C 389.420 267.664,389.600 267.201,389.600 266.771 C 389.600 266.341,389.774 265.677,389.987 265.295 C 390.682 264.049,391.600 260.800,391.600 259.586 C 391.600 258.934,391.780 258.400,392.000 258.400 C 392.220 258.400,392.400 257.860,392.400 257.200 C 392.400 256.540,392.580 256.000,392.800 256.000 C 393.020 256.000,393.200 255.280,393.200 254.400 C 393.200 253.520,393.380 252.800,393.600 252.800 C 393.820 252.800,394.000 252.260,394.000 251.600 C 394.000 250.940,394.180 250.400,394.400 250.400 C 394.620 250.400,394.800 249.601,394.800 248.624 C 394.800 247.647,394.980 246.736,395.200 246.600 C 395.420 246.464,395.600 245.643,395.600 244.776 C 395.600 243.909,395.780 243.200,396.000 243.200 C 396.220 243.200,396.400 242.390,396.400 241.400 C 396.400 240.410,396.580 239.600,396.800 239.600 C 397.020 239.600,397.200 238.700,397.200 237.600 C 397.200 236.500,397.380 235.600,397.600 235.600 C 397.822 235.600,398.000 234.533,398.000 233.200 C 398.000 231.867,398.178 230.800,398.400 230.800 C 398.627 230.800,398.800 229.627,398.800 228.080 C 398.800 226.504,399.001 225.159,399.278 224.882 C 399.949 224.211,400.219 187.347,399.605 180.200 C 399.360 177.340,399.064 173.695,398.948 172.100 C 398.832 170.505,398.571 169.200,398.368 169.200 C 398.166 169.200,398.000 168.221,398.000 167.024 C 398.000 165.827,397.820 164.736,397.600 164.600 C 397.380 164.464,397.200 163.463,397.200 162.376 C 397.200 161.289,397.020 160.400,396.800 160.400 C 396.580 160.400,396.400 159.590,396.400 158.600 C 396.400 157.610,396.220 156.800,396.000 156.800 C 395.780 156.800,395.600 156.091,395.600 155.224 C 395.600 154.357,395.420 153.536,395.200 153.400 C 394.980 153.264,394.800 152.454,394.800 151.600 C 394.800 150.746,394.620 149.936,394.400 149.800 C 394.180 149.664,394.000 149.023,394.000 148.376 C 394.000 147.729,393.820 147.200,393.600 147.200 C 393.380 147.200,393.200 146.581,393.200 145.824 C 393.200 145.067,393.020 144.336,392.800 144.200 C 392.580 144.064,392.400 143.524,392.400 143.000 C 392.400 142.476,392.220 141.936,392.000 141.800 C 391.780 141.664,391.600 141.030,391.600 140.390 C 391.600 139.196,390.677 135.941,389.987 134.705 C 389.774 134.323,389.600 133.736,389.600 133.400 C 389.600 133.064,389.420 132.432,389.200 131.995 C 388.980 131.558,388.620 130.842,388.400 130.405 C 388.180 129.968,388.000 129.248,388.000 128.805 C 388.000 128.362,387.820 128.000,387.600 128.000 C 387.380 128.000,387.200 127.640,387.200 127.200 C 387.200 126.760,387.020 126.400,386.800 126.400 C 386.580 126.400,386.400 125.860,386.400 125.200 C 386.400 124.540,386.220 124.000,386.000 124.000 C 385.780 124.000,385.600 123.640,385.600 123.200 C 385.600 122.760,385.420 122.400,385.200 122.400 C 384.980 122.400,384.800 121.961,384.800 121.424 C 384.800 120.887,384.620 120.336,384.400 120.200 C 384.180 120.064,384.000 119.603,384.000 119.176 C 384.000 118.749,383.820 118.400,383.600 118.400 C 383.380 118.400,383.200 118.040,383.200 117.600 C 383.200 117.160,383.020 116.800,382.800 116.800 C 382.580 116.800,382.400 116.440,382.400 116.000 C 382.400 115.560,382.220 115.200,382.000 115.200 C 381.780 115.200,381.600 114.851,381.600 114.424 C 381.600 113.997,381.420 113.536,381.200 113.400 C 380.980 113.264,380.800 112.818,380.800 112.410 C 380.800 112.001,380.665 111.607,380.500 111.533 C 380.124 111.366,378.825 109.236,378.529 108.300 C 378.407 107.915,378.148 107.600,377.953 107.600 C 377.759 107.600,377.600 107.240,377.600 106.800 C 377.600 106.360,377.420 106.000,377.200 106.000 C 376.980 106.000,376.800 105.640,376.800 105.200 C 376.800 104.760,376.620 104.400,376.400 104.400 C 376.180 104.400,376.000 104.040,376.000 103.600 C 376.000 103.160,375.820 102.800,375.600 102.800 C 375.380 102.800,375.199 102.485,375.197 102.100 C 375.196 101.715,374.830 100.860,374.385 100.200 C 373.939 99.540,373.272 98.370,372.901 97.600 C 372.530 96.830,371.905 95.851,371.513 95.425 C 371.121 94.998,370.800 94.453,370.800 94.213 C 370.800 93.973,370.440 93.517,370.000 93.200 C 369.560 92.883,369.200 92.303,369.200 91.912 C 369.200 91.520,369.020 91.200,368.800 91.200 C 368.580 91.200,368.400 90.964,368.400 90.675 C 368.400 90.387,368.040 89.764,367.600 89.292 C 367.160 88.820,366.800 88.291,366.799 88.117 C 366.799 87.943,366.259 87.170,365.600 86.400 C 364.941 85.630,364.401 84.841,364.401 84.647 C 364.400 84.453,364.084 84.003,363.697 83.647 C 363.311 83.291,362.740 82.505,362.430 81.900 C 362.119 81.295,361.715 80.800,361.532 80.800 C 361.350 80.800,361.200 80.622,361.200 80.405 C 361.200 80.010,360.608 79.223,358.900 77.347 C 358.405 76.804,358.000 76.233,358.000 76.079 C 358.000 75.925,357.280 75.012,356.400 74.049 C 355.520 73.087,354.800 72.146,354.800 71.958 C 354.800 71.771,353.853 70.668,352.695 69.509 C 351.538 68.349,350.147 66.770,349.605 66.000 C 349.063 65.230,347.535 63.567,346.210 62.304 C 343.273 59.505,342.563 58.794,338.015 54.100 C 336.044 52.065,334.268 50.400,334.069 50.400 C 333.870 50.400,332.656 49.390,331.371 48.155 C 330.086 46.920,328.577 45.617,328.017 45.258 C 326.718 44.426,326.186 44.010,324.999 42.900 C 324.470 42.405,323.920 42.000,323.779 42.000 C 323.637 42.000,323.017 41.460,322.400 40.800 C 321.783 40.140,321.081 39.600,320.840 39.600 C 320.598 39.600,320.400 39.420,320.400 39.200 C 320.400 38.980,320.170 38.800,319.888 38.800 C 319.607 38.800,319.117 38.440,318.800 38.000 C 318.483 37.560,317.943 37.200,317.600 37.200 C 317.257 37.200,316.717 36.840,316.400 36.400 C 316.083 35.960,315.638 35.600,315.412 35.599 C 315.185 35.599,314.370 35.059,313.600 34.400 C 312.830 33.741,311.975 33.201,311.700 33.201 C 311.425 33.200,311.200 33.042,311.200 32.849 C 311.200 32.655,310.660 32.273,310.000 32.000 C 309.340 31.727,308.800 31.345,308.800 31.151 C 308.800 30.958,308.558 30.800,308.262 30.800 C 307.966 30.800,307.398 30.440,307.000 30.000 C 306.602 29.560,306.114 29.200,305.917 29.200 C 305.719 29.200,304.895 28.750,304.086 28.200 C 303.277 27.650,302.379 27.200,302.090 27.200 C 301.802 27.200,301.180 26.840,300.708 26.400 C 300.236 25.960,299.613 25.600,299.325 25.600 C 299.036 25.600,298.800 25.420,298.800 25.200 C 298.800 24.980,298.440 24.800,298.000 24.800 C 297.560 24.800,297.200 24.620,297.200 24.400 C 297.200 24.180,296.840 24.000,296.400 24.000 C 295.960 24.000,295.600 23.820,295.600 23.600 C 295.600 23.380,295.240 23.200,294.800 23.200 C 294.360 23.200,294.000 23.020,294.000 22.800 C 294.000 22.580,293.640 22.400,293.200 22.400 C 292.760 22.400,292.400 22.220,292.400 22.000 C 292.400 21.780,292.130 21.600,291.800 21.600 C 291.470 21.600,291.200 21.454,291.200 21.275 C 291.200 21.096,290.570 20.702,289.800 20.400 C 289.030 20.098,288.400 19.704,288.400 19.525 C 288.400 19.346,288.051 19.200,287.624 19.200 C 287.197 19.200,286.736 19.020,286.600 18.800 C 286.464 18.580,286.003 18.400,285.576 18.400 C 285.149 18.400,284.800 18.220,284.800 18.000 C 284.800 17.780,284.440 17.600,284.000 17.600 C 283.560 17.600,283.200 17.420,283.200 17.200 C 283.200 16.980,282.840 16.800,282.400 16.800 C 281.960 16.800,281.600 16.620,281.600 16.400 C 281.600 16.180,281.251 16.000,280.824 16.000 C 280.397 16.000,279.936 15.820,279.800 15.600 C 279.664 15.380,279.113 15.200,278.576 15.200 C 278.039 15.200,277.600 15.020,277.600 14.800 C 277.600 14.580,277.240 14.400,276.800 14.400 C 276.360 14.400,276.000 14.220,276.000 14.000 C 276.000 13.780,275.674 13.600,275.275 13.600 C 274.876 13.600,273.805 13.240,272.894 12.800 C 271.984 12.360,271.048 12.000,270.814 12.000 C 270.580 12.000,270.032 11.820,269.595 11.600 C 269.158 11.380,268.466 11.035,268.059 10.833 C 267.651 10.632,266.481 10.341,265.459 10.188 C 264.436 10.035,263.600 9.750,263.600 9.555 C 263.600 9.360,263.060 9.200,262.400 9.200 C 261.740 9.200,261.200 9.020,261.200 8.800 C 261.200 8.580,260.570 8.400,259.800 8.400 C 259.030 8.400,258.400 8.220,258.400 8.000 C 258.400 7.780,257.871 7.600,257.224 7.600 C 256.577 7.600,255.936 7.420,255.800 7.200 C 255.664 6.980,254.933 6.800,254.176 6.800 C 253.419 6.800,252.800 6.620,252.800 6.400 C 252.800 6.180,252.260 6.000,251.600 6.000 C 250.940 6.000,250.400 5.820,250.400 5.600 C 250.400 5.380,249.601 5.200,248.624 5.200 C 247.647 5.200,246.736 5.020,246.600 4.800 C 246.464 4.580,245.643 4.400,244.776 4.400 C 243.909 4.400,243.200 4.220,243.200 4.000 C 243.200 3.780,242.390 3.600,241.400 3.600 C 240.410 3.600,239.600 3.420,239.600 3.200 C 239.600 2.980,238.711 2.800,237.624 2.800 C 236.537 2.800,235.536 2.620,235.400 2.400 C 235.264 2.180,234.173 2.000,232.976 2.000 C 231.779 2.000,230.800 1.820,230.800 1.600 C 230.800 1.373,229.627 1.200,228.080 1.200 C 226.483 1.200,225.160 1.000,224.875 0.715 C 224.277 0.117,184.736 -0.110,178.800 0.451 M209.200 17.200 C 209.200 17.444,211.040 17.600,213.920 17.600 C 216.516 17.600,218.811 17.766,219.020 17.969 C 219.229 18.172,220.660 18.436,222.200 18.557 C 227.657 18.985,229.805 19.275,230.180 19.635 C 230.389 19.836,231.388 20.000,232.400 20.000 C 233.412 20.000,234.411 20.162,234.620 20.359 C 234.973 20.692,235.784 20.848,240.300 21.453 C 241.235 21.578,242.000 21.842,242.000 22.040 C 242.000 22.238,242.709 22.400,243.576 22.400 C 244.443 22.400,245.264 22.580,245.400 22.800 C 245.536 23.020,246.089 23.200,246.629 23.200 C 247.169 23.200,247.923 23.358,248.305 23.551 C 249.527 24.168,251.740 24.754,253.900 25.032 C 255.055 25.181,256.000 25.460,256.000 25.652 C 256.000 25.843,256.540 26.000,257.200 26.000 C 257.860 26.000,258.400 26.180,258.400 26.400 C 258.400 26.620,258.850 26.800,259.400 26.800 C 259.950 26.800,260.400 26.980,260.400 27.200 C 260.400 27.420,260.940 27.600,261.600 27.600 C 262.260 27.600,262.800 27.780,262.800 28.000 C 262.800 28.220,263.160 28.400,263.600 28.400 C 264.040 28.400,264.400 28.580,264.400 28.800 C 264.400 29.020,264.940 29.200,265.600 29.200 C 266.260 29.200,266.800 29.380,266.800 29.600 C 266.800 29.820,267.160 30.000,267.600 30.000 C 268.040 30.000,268.400 30.180,268.400 30.400 C 268.400 30.620,268.940 30.800,269.600 30.800 C 270.260 30.800,270.800 30.980,270.800 31.200 C 270.800 31.420,271.160 31.600,271.600 31.600 C 272.040 31.600,272.400 31.780,272.400 32.000 C 272.400 32.220,272.760 32.400,273.200 32.400 C 273.640 32.400,274.000 32.580,274.000 32.800 C 274.000 33.020,274.349 33.200,274.776 33.200 C 275.203 33.200,275.664 33.380,275.800 33.600 C 275.936 33.820,276.397 34.000,276.824 34.000 C 277.251 34.000,277.600 34.180,277.600 34.400 C 277.600 34.620,277.960 34.800,278.400 34.800 C 278.840 34.800,279.200 34.980,279.200 35.200 C 279.200 35.420,279.560 35.600,280.000 35.600 C 280.440 35.600,280.800 35.780,280.800 36.000 C 280.800 36.220,281.160 36.400,281.600 36.400 C 282.040 36.400,282.400 36.580,282.400 36.800 C 282.400 37.020,282.760 37.200,283.200 37.200 C 283.640 37.200,284.000 37.380,284.000 37.600 C 284.000 37.820,284.360 38.000,284.800 38.000 C 285.240 38.000,285.600 38.180,285.600 38.400 C 285.600 38.620,285.960 38.800,286.400 38.800 C 286.840 38.800,287.200 38.939,287.200 39.108 C 287.200 39.278,288.595 40.129,290.300 41.000 C 292.005 41.871,293.460 42.722,293.533 42.892 C 293.607 43.061,293.922 43.200,294.233 43.200 C 294.545 43.200,294.800 43.380,294.800 43.600 C 294.800 43.820,295.036 44.000,295.325 44.000 C 295.613 44.000,296.236 44.360,296.708 44.800 C 297.180 45.240,297.804 45.600,298.095 45.600 C 298.386 45.600,298.883 45.960,299.200 46.400 C 299.517 46.840,300.057 47.200,300.400 47.200 C 300.743 47.200,301.283 47.560,301.600 48.000 C 301.917 48.440,302.415 48.800,302.706 48.800 C 302.998 48.800,303.686 49.250,304.236 49.800 C 304.786 50.350,305.400 50.800,305.600 50.800 C 305.800 50.800,306.414 51.250,306.964 51.800 C 307.514 52.350,308.160 52.800,308.400 52.800 C 308.640 52.800,309.254 53.205,309.765 53.700 C 311.144 55.036,313.945 57.290,315.356 58.200 C 316.039 58.640,317.471 59.855,318.539 60.900 C 319.607 61.945,320.637 62.800,320.828 62.800 C 321.262 62.800,337.200 78.777,337.200 79.212 C 337.200 79.387,338.280 80.627,339.600 81.968 C 340.920 83.308,342.000 84.592,342.000 84.821 C 342.000 85.049,342.405 85.670,342.900 86.199 C 343.899 87.268,343.875 87.237,346.400 90.602 C 347.390 91.921,348.425 93.238,348.700 93.529 C 348.975 93.819,349.200 94.216,349.200 94.410 C 349.200 94.605,349.650 95.214,350.200 95.764 C 350.750 96.314,351.200 97.002,351.200 97.294 C 351.200 97.585,351.560 98.083,352.000 98.400 C 352.440 98.717,352.800 99.257,352.800 99.600 C 352.800 99.943,353.160 100.483,353.600 100.800 C 354.040 101.117,354.400 101.614,354.400 101.905 C 354.400 102.196,354.760 102.820,355.200 103.292 C 355.640 103.764,356.000 104.387,356.000 104.675 C 356.000 104.964,356.180 105.200,356.400 105.200 C 356.620 105.200,356.800 105.470,356.800 105.800 C 356.800 106.130,356.980 106.400,357.200 106.400 C 357.420 106.400,357.600 106.636,357.600 106.925 C 357.600 107.213,357.960 107.836,358.400 108.308 C 358.840 108.780,359.200 109.444,359.200 109.783 C 359.200 110.122,359.380 110.400,359.600 110.400 C 359.820 110.400,360.000 110.747,360.000 111.171 C 360.000 111.596,360.270 112.213,360.600 112.543 C 360.930 112.873,361.200 113.426,361.200 113.771 C 361.200 114.117,361.380 114.400,361.600 114.400 C 361.820 114.400,362.000 114.760,362.000 115.200 C 362.000 115.640,362.180 116.000,362.400 116.000 C 362.620 116.000,362.800 116.360,362.800 116.800 C 362.800 117.240,362.980 117.600,363.200 117.600 C 363.420 117.600,363.600 117.960,363.600 118.400 C 363.600 118.840,363.780 119.200,364.000 119.200 C 364.220 119.200,364.400 119.560,364.400 120.000 C 364.400 120.440,364.580 120.800,364.800 120.800 C 365.020 120.800,365.200 121.160,365.200 121.600 C 365.200 122.040,365.380 122.400,365.600 122.400 C 365.820 122.400,366.000 122.749,366.000 123.176 C 366.000 123.603,366.180 124.064,366.400 124.200 C 366.620 124.336,366.800 124.797,366.800 125.224 C 366.800 125.651,366.980 126.000,367.200 126.000 C 367.420 126.000,367.600 126.360,367.600 126.800 C 367.600 127.240,367.780 127.600,368.000 127.600 C 368.220 127.600,368.400 127.960,368.400 128.400 C 368.400 128.840,368.580 129.200,368.800 129.200 C 369.020 129.200,369.200 129.740,369.200 130.400 C 369.200 131.060,369.380 131.600,369.600 131.600 C 369.820 131.600,370.000 131.960,370.000 132.400 C 370.000 132.840,370.180 133.200,370.400 133.200 C 370.620 133.200,370.800 133.740,370.800 134.400 C 370.800 135.060,370.980 135.600,371.200 135.600 C 371.420 135.600,371.600 135.960,371.600 136.400 C 371.600 136.840,371.780 137.200,372.000 137.200 C 372.220 137.200,372.400 137.740,372.400 138.400 C 372.400 139.060,372.580 139.600,372.800 139.600 C 373.020 139.600,373.200 140.050,373.200 140.600 C 373.200 141.150,373.380 141.600,373.600 141.600 C 373.820 141.600,374.000 142.140,374.000 142.800 C 374.000 143.460,374.180 144.000,374.400 144.000 C 374.620 144.000,374.800 144.540,374.800 145.200 C 374.800 145.860,374.980 146.400,375.200 146.400 C 375.420 146.400,375.600 147.120,375.600 148.000 C 375.600 148.880,375.780 149.600,376.000 149.600 C 376.220 149.600,376.400 150.140,376.400 150.800 C 376.400 151.460,376.557 152.000,376.748 152.000 C 376.940 152.000,377.225 153.305,377.382 154.900 C 377.540 156.495,377.811 157.980,377.987 158.200 C 378.291 158.583,378.564 159.906,379.056 163.400 C 379.180 164.280,379.444 165.171,379.641 165.380 C 379.838 165.589,380.000 166.588,380.000 167.600 C 380.000 168.612,380.164 169.611,380.365 169.820 C 380.725 170.195,381.015 172.343,381.443 177.800 C 381.564 179.340,381.828 180.771,382.031 180.980 C 382.234 181.189,382.400 183.383,382.400 185.856 C 382.400 188.423,382.572 190.459,382.800 190.600 C 383.048 190.753,383.200 194.330,383.200 200.000 C 383.200 205.670,383.048 209.247,382.800 209.400 C 382.572 209.541,382.400 211.577,382.400 214.144 C 382.400 216.617,382.234 218.811,382.031 219.020 C 381.828 219.229,381.564 220.660,381.443 222.200 C 381.015 227.657,380.725 229.805,380.365 230.180 C 380.164 230.389,380.000 231.388,380.000 232.400 C 380.000 233.412,379.838 234.411,379.641 234.620 C 379.308 234.973,379.152 235.784,378.547 240.300 C 378.422 241.235,378.179 242.000,378.007 242.000 C 377.835 242.000,377.567 243.350,377.413 245.000 C 377.258 246.650,376.967 248.000,376.766 248.000 C 376.565 248.000,376.400 248.540,376.400 249.200 C 376.400 249.860,376.220 250.400,376.000 250.400 C 375.780 250.400,375.600 251.120,375.600 252.000 C 375.600 252.880,375.420 253.600,375.200 253.600 C 374.980 253.600,374.800 254.140,374.800 254.800 C 374.800 255.460,374.620 256.000,374.400 256.000 C 374.180 256.000,374.000 256.540,374.000 257.200 C 374.000 257.860,373.820 258.400,373.600 258.400 C 373.380 258.400,373.200 258.850,373.200 259.400 C 373.200 259.950,373.020 260.400,372.800 260.400 C 372.580 260.400,372.400 260.940,372.400 261.600 C 372.400 262.260,372.220 262.800,372.000 262.800 C 371.780 262.800,371.600 263.160,371.600 263.600 C 371.600 264.040,371.420 264.400,371.200 264.400 C 370.980 264.400,370.800 264.940,370.800 265.600 C 370.800 266.260,370.620 266.800,370.400 266.800 C 370.180 266.800,370.000 267.160,370.000 267.600 C 370.000 268.040,369.820 268.400,369.600 268.400 C 369.380 268.400,369.200 268.940,369.200 269.600 C 369.200 270.260,369.020 270.800,368.800 270.800 C 368.580 270.800,368.400 271.160,368.400 271.600 C 368.400 272.040,368.220 272.400,368.000 272.400 C 367.780 272.400,367.600 272.760,367.600 273.200 C 367.600 273.640,367.420 274.000,367.200 274.000 C 366.980 274.000,366.800 274.349,366.800 274.776 C 366.800 275.203,366.620 275.664,366.400 275.800 C 366.180 275.936,366.000 276.397,366.000 276.824 C 366.000 277.251,365.820 277.600,365.600 277.600 C 365.380 277.600,365.200 277.960,365.200 278.400 C 365.200 278.840,365.020 279.200,364.800 279.200 C 364.580 279.200,364.400 279.434,364.400 279.720 C 364.400 280.456,363.459 282.393,363.100 282.397 C 362.935 282.399,362.800 282.760,362.800 283.200 C 362.800 283.640,362.620 284.000,362.400 284.000 C 362.180 284.000,362.000 284.360,362.000 284.800 C 362.000 285.240,361.820 285.600,361.600 285.600 C 361.380 285.600,361.200 285.883,361.200 286.229 C 361.200 286.574,360.930 287.127,360.600 287.457 C 360.270 287.787,360.000 288.404,360.000 288.829 C 360.000 289.253,359.820 289.600,359.600 289.600 C 359.380 289.600,359.200 289.960,359.200 290.400 C 359.200 290.840,359.020 291.200,358.800 291.200 C 358.580 291.200,358.400 291.436,358.400 291.725 C 358.400 292.013,358.040 292.636,357.600 293.108 C 357.160 293.580,356.800 294.154,356.800 294.383 C 356.800 294.612,356.620 294.800,356.400 294.800 C 356.180 294.800,356.000 295.036,356.000 295.325 C 356.000 295.613,355.640 296.236,355.200 296.708 C 354.760 297.180,354.400 297.804,354.400 298.095 C 354.400 298.386,354.040 298.883,353.600 299.200 C 353.160 299.517,352.800 300.057,352.800 300.400 C 352.800 300.743,352.440 301.283,352.000 301.600 C 351.560 301.917,351.200 302.415,351.200 302.706 C 351.200 302.998,350.750 303.686,350.200 304.236 C 349.650 304.786,349.200 305.380,349.200 305.556 C 349.200 305.732,348.750 306.399,348.200 307.038 C 347.651 307.677,347.201 308.359,347.200 308.553 C 347.200 308.747,346.883 309.197,346.496 309.553 C 346.108 309.909,345.259 310.920,344.608 311.800 C 343.957 312.680,343.104 313.749,342.712 314.175 C 342.320 314.602,342.000 315.096,342.000 315.273 C 342.000 315.450,340.920 316.692,339.600 318.032 C 338.280 319.373,337.200 320.630,337.200 320.825 C 337.200 321.289,321.289 337.200,320.825 337.200 C 320.630 337.200,319.373 338.280,318.032 339.600 C 316.692 340.920,315.450 342.000,315.273 342.000 C 315.096 342.000,314.602 342.320,314.175 342.712 C 313.749 343.104,312.680 343.957,311.800 344.608 C 310.920 345.259,309.909 346.108,309.553 346.496 C 309.197 346.883,308.747 347.200,308.553 347.200 C 308.359 347.201,307.677 347.651,307.038 348.200 C 306.399 348.750,305.732 349.200,305.556 349.200 C 305.380 349.200,304.786 349.650,304.236 350.200 C 303.686 350.750,302.998 351.200,302.706 351.200 C 302.415 351.200,301.917 351.560,301.600 352.000 C 301.283 352.440,300.743 352.800,300.400 352.800 C 300.057 352.800,299.517 353.160,299.200 353.600 C 298.883 354.040,298.386 354.400,298.095 354.400 C 297.804 354.400,297.180 354.760,296.708 355.200 C 296.236 355.640,295.613 356.000,295.325 356.000 C 295.036 356.000,294.800 356.180,294.800 356.400 C 294.800 356.620,294.612 356.800,294.383 356.800 C 294.154 356.800,293.580 357.160,293.108 357.600 C 292.636 358.040,292.013 358.400,291.725 358.400 C 291.436 358.400,291.200 358.580,291.200 358.800 C 291.200 359.020,290.840 359.200,290.400 359.200 C 289.960 359.200,289.600 359.380,289.600 359.600 C 289.600 359.820,289.253 360.000,288.829 360.000 C 288.404 360.000,287.787 360.270,287.457 360.600 C 287.127 360.930,286.574 361.200,286.229 361.200 C 285.883 361.200,285.600 361.380,285.600 361.600 C 285.600 361.820,285.240 362.000,284.800 362.000 C 284.360 362.000,284.000 362.180,284.000 362.400 C 284.000 362.620,283.640 362.800,283.200 362.800 C 282.760 362.800,282.399 362.935,282.397 363.100 C 282.393 363.459,280.456 364.400,279.720 364.400 C 279.434 364.400,279.200 364.580,279.200 364.800 C 279.200 365.020,278.840 365.200,278.400 365.200 C 277.960 365.200,277.600 365.380,277.600 365.600 C 277.600 365.820,277.251 366.000,276.824 366.000 C 276.397 366.000,275.936 366.180,275.800 366.400 C 275.664 366.620,275.203 366.800,274.776 366.800 C 274.349 366.800,274.000 366.980,274.000 367.200 C 274.000 367.420,273.640 367.600,273.200 367.600 C 272.760 367.600,272.400 367.780,272.400 368.000 C 272.400 368.220,272.040 368.400,271.600 368.400 C 271.160 368.400,270.800 368.580,270.800 368.800 C 270.800 369.020,270.260 369.200,269.600 369.200 C 268.940 369.200,268.400 369.380,268.400 369.600 C 268.400 369.820,268.040 370.000,267.600 370.000 C 267.160 370.000,266.800 370.180,266.800 370.400 C 266.800 370.620,266.260 370.800,265.600 370.800 C 264.940 370.800,264.400 370.980,264.400 371.200 C 264.400 371.420,264.040 371.600,263.600 371.600 C 263.160 371.600,262.800 371.780,262.800 372.000 C 262.800 372.220,262.260 372.400,261.600 372.400 C 260.940 372.400,260.400 372.580,260.400 372.800 C 260.400 373.020,259.950 373.200,259.400 373.200 C 258.850 373.200,258.400 373.380,258.400 373.600 C 258.400 373.820,257.860 374.000,257.200 374.000 C 256.540 374.000,256.000 374.180,256.000 374.400 C 256.000 374.620,255.460 374.800,254.800 374.800 C 254.140 374.800,253.600 374.980,253.600 375.200 C 253.600 375.420,252.880 375.600,252.000 375.600 C 251.120 375.600,250.400 375.780,250.400 376.000 C 250.400 376.220,249.860 376.400,249.200 376.400 C 248.540 376.400,248.000 376.565,248.000 376.766 C 248.000 376.967,246.650 377.258,245.000 377.413 C 243.350 377.567,242.000 377.835,242.000 378.007 C 242.000 378.179,241.235 378.422,240.300 378.547 C 235.784 379.152,234.973 379.308,234.620 379.641 C 234.411 379.838,233.412 380.000,232.400 380.000 C 231.388 380.000,230.389 380.164,230.180 380.365 C 229.805 380.725,227.657 381.015,222.200 381.443 C 220.660 381.564,219.229 381.828,219.020 382.031 C 218.811 382.234,216.617 382.400,214.144 382.400 C 211.577 382.400,209.541 382.572,209.400 382.800 C 209.065 383.342,190.935 383.342,190.600 382.800 C 190.459 382.572,188.423 382.400,185.856 382.400 C 183.383 382.400,181.189 382.234,180.980 382.031 C 180.771 381.828,179.340 381.564,177.800 381.443 C 172.343 381.015,170.195 380.725,169.820 380.365 C 169.611 380.164,168.612 380.000,167.600 380.000 C 166.588 380.000,165.589 379.838,165.380 379.641 C 165.171 379.444,164.280 379.180,163.400 379.056 C 159.906 378.564,158.583 378.291,158.200 377.987 C 157.980 377.811,156.495 377.540,154.900 377.382 C 153.305 377.225,152.000 376.940,152.000 376.748 C 152.000 376.557,151.460 376.400,150.800 376.400 C 150.140 376.400,149.600 376.220,149.600 376.000 C 149.600 375.780,148.880 375.600,148.000 375.600 C 147.120 375.600,146.400 375.420,146.400 375.200 C 146.400 374.980,145.860 374.800,145.200 374.800 C 144.540 374.800,144.000 374.620,144.000 374.400 C 144.000 374.180,143.460 374.000,142.800 374.000 C 142.140 374.000,141.600 373.820,141.600 373.600 C 141.600 373.380,141.150 373.200,140.600 373.200 C 140.050 373.200,139.600 373.020,139.600 372.800 C 139.600 372.580,139.060 372.400,138.400 372.400 C 137.740 372.400,137.200 372.220,137.200 372.000 C 137.200 371.780,136.840 371.600,136.400 371.600 C 135.960 371.600,135.600 371.420,135.600 371.200 C 135.600 370.980,135.060 370.800,134.400 370.800 C 133.740 370.800,133.200 370.620,133.200 370.400 C 133.200 370.180,132.840 370.000,132.400 370.000 C 131.960 370.000,131.600 369.820,131.600 369.600 C 131.600 369.380,131.060 369.200,130.400 369.200 C 129.740 369.200,129.200 369.020,129.200 368.800 C 129.200 368.580,128.840 368.400,128.400 368.400 C 127.960 368.400,127.600 368.220,127.600 368.000 C 127.600 367.780,127.240 367.600,126.800 367.600 C 126.360 367.600,126.000 367.420,126.000 367.200 C 126.000 366.980,125.651 366.800,125.224 366.800 C 124.797 366.800,124.336 366.620,124.200 366.400 C 124.064 366.180,123.603 366.000,123.176 366.000 C 122.749 366.000,122.400 365.820,122.400 365.600 C 122.400 365.380,122.040 365.200,121.600 365.200 C 121.160 365.200,120.800 365.020,120.800 364.800 C 120.800 364.580,120.440 364.400,120.000 364.400 C 119.560 364.400,119.200 364.220,119.200 364.000 C 119.200 363.780,118.840 363.600,118.400 363.600 C 117.960 363.600,117.600 363.420,117.600 363.200 C 117.600 362.980,117.240 362.800,116.800 362.800 C 116.360 362.800,116.000 362.620,116.000 362.400 C 116.000 362.180,115.640 362.000,115.200 362.000 C 114.760 362.000,114.400 361.820,114.400 361.600 C 114.400 361.380,114.117 361.200,113.771 361.200 C 113.426 361.200,112.873 360.930,112.543 360.600 C 112.213 360.270,111.596 360.000,111.171 360.000 C 110.747 360.000,110.400 359.820,110.400 359.600 C 110.400 359.380,110.122 359.200,109.783 359.200 C 109.444 359.200,108.780 358.840,108.308 358.400 C 107.836 357.960,107.213 357.600,106.925 357.600 C 106.636 357.600,106.400 357.420,106.400 357.200 C 106.400 356.980,106.130 356.800,105.800 356.800 C 105.470 356.800,105.200 356.620,105.200 356.400 C 105.200 356.180,104.964 356.000,104.675 356.000 C 104.387 356.000,103.764 355.640,103.292 355.200 C 102.820 354.760,102.196 354.400,101.905 354.400 C 101.614 354.400,101.117 354.040,100.800 353.600 C 100.483 353.160,99.943 352.800,99.600 352.800 C 99.257 352.800,98.717 352.440,98.400 352.000 C 98.083 351.560,97.585 351.200,97.294 351.200 C 97.002 351.200,96.314 350.750,95.764 350.200 C 95.214 349.650,94.605 349.200,94.410 349.200 C 94.216 349.200,93.819 348.975,93.529 348.700 C 93.238 348.425,91.921 347.390,90.602 346.400 C 87.237 343.875,87.268 343.899,86.199 342.900 C 85.670 342.405,85.049 342.000,84.821 342.000 C 84.592 342.000,83.308 340.920,81.968 339.600 C 80.627 338.280,79.387 337.200,79.212 337.200 C 78.777 337.200,62.800 321.262,62.800 320.828 C 62.800 320.637,61.945 319.607,60.900 318.539 C 59.855 317.471,58.640 316.039,58.200 315.356 C 57.290 313.945,55.036 311.144,53.700 309.765 C 53.205 309.254,52.800 308.640,52.800 308.400 C 52.800 308.160,52.350 307.514,51.800 306.964 C 51.250 306.414,50.800 305.800,50.800 305.600 C 50.800 305.400,50.350 304.786,49.800 304.236 C 49.250 303.686,48.800 302.998,48.800 302.706 C 48.800 302.415,48.440 301.917,48.000 301.600 C 47.560 301.283,47.200 300.743,47.200 300.400 C 47.200 300.057,46.840 299.517,46.400 299.200 C 45.960 298.883,45.600 298.386,45.600 298.095 C 45.600 297.804,45.240 297.180,44.800 296.708 C 44.360 296.236,44.000 295.613,44.000 295.325 C 44.000 295.036,43.820 294.800,43.600 294.800 C 43.380 294.800,43.200 294.545,43.200 294.233 C 43.200 293.922,43.061 293.607,42.892 293.533 C 42.722 293.460,41.871 292.005,41.000 290.300 C 40.129 288.595,39.278 287.200,39.108 287.200 C 38.939 287.200,38.800 286.840,38.800 286.400 C 38.800 285.960,38.620 285.600,38.400 285.600 C 38.180 285.600,38.000 285.240,38.000 284.800 C 38.000 284.360,37.820 284.000,37.600 284.000 C 37.380 284.000,37.200 283.640,37.200 283.200 C 37.200 282.760,37.020 282.400,36.800 282.400 C 36.580 282.400,36.400 282.040,36.400 281.600 C 36.400 281.160,36.220 280.800,36.000 280.800 C 35.780 280.800,35.600 280.440,35.600 280.000 C 35.600 279.560,35.420 279.200,35.200 279.200 C 34.980 279.200,34.800 278.840,34.800 278.400 C 34.800 277.960,34.620 277.600,34.400 277.600 C 34.180 277.600,34.000 277.251,34.000 276.824 C 34.000 276.397,33.820 275.936,33.600 275.800 C 33.380 275.664,33.200 275.203,33.200 274.776 C 33.200 274.349,33.020 274.000,32.800 274.000 C 32.580 274.000,32.400 273.640,32.400 273.200 C 32.400 272.760,32.220 272.400,32.000 272.400 C 31.780 272.400,31.600 272.040,31.600 271.600 C 31.600 271.160,31.420 270.800,31.200 270.800 C 30.980 270.800,30.800 270.260,30.800 269.600 C 30.800 268.940,30.620 268.400,30.400 268.400 C 30.180 268.400,30.000 268.040,30.000 267.600 C 30.000 267.160,29.820 266.800,29.600 266.800 C 29.380 266.800,29.200 266.260,29.200 265.600 C 29.200 264.940,29.020 264.400,28.800 264.400 C 28.580 264.400,28.400 264.040,28.400 263.600 C 28.400 263.160,28.220 262.800,28.000 262.800 C 27.780 262.800,27.600 262.260,27.600 261.600 C 27.600 260.940,27.420 260.400,27.200 260.400 C 26.980 260.400,26.800 259.950,26.800 259.400 C 26.800 258.850,26.620 258.400,26.400 258.400 C 26.180 258.400,26.000 257.860,26.000 257.200 C 26.000 256.540,25.843 256.000,25.652 256.000 C 25.460 256.000,25.181 255.055,25.032 253.900 C 24.754 251.740,24.168 249.527,23.551 248.305 C 23.358 247.923,23.200 247.169,23.200 246.629 C 23.200 246.089,23.020 245.536,22.800 245.400 C 22.580 245.264,22.400 244.443,22.400 243.576 C 22.400 242.709,22.238 242.000,22.040 242.000 C 21.842 242.000,21.578 241.235,21.453 240.300 C 20.848 235.784,20.692 234.973,20.359 234.620 C 20.162 234.411,20.000 233.412,20.000 232.400 C 20.000 231.388,19.836 230.389,19.635 230.180 C 19.275 229.805,18.985 227.657,18.557 222.200 C 18.436 220.660,18.172 219.229,17.969 219.020 C 17.766 218.811,17.600 216.516,17.600 213.920 C 17.600 211.040,17.444 209.200,17.200 209.200 C 16.945 209.200,16.800 205.867,16.800 200.000 C 16.800 194.133,16.945 190.800,17.200 190.800 C 17.444 190.800,17.600 188.960,17.600 186.080 C 17.600 183.484,17.766 181.189,17.969 180.980 C 18.172 180.771,18.436 179.340,18.557 177.800 C 18.985 172.343,19.275 170.195,19.635 169.820 C 19.836 169.611,20.000 168.612,20.000 167.600 C 20.000 166.588,20.162 165.589,20.359 165.380 C 20.556 165.171,20.816 164.280,20.936 163.400 C 21.313 160.637,21.643 159.028,22.000 158.200 C 22.190 157.760,22.437 156.860,22.549 156.200 C 22.899 154.131,23.249 152.629,23.575 151.800 C 24.293 149.972,24.777 148.078,25.032 146.100 C 25.181 144.945,25.460 144.000,25.652 144.000 C 25.843 144.000,26.000 143.460,26.000 142.800 C 26.000 142.140,26.180 141.600,26.400 141.600 C 26.620 141.600,26.800 141.150,26.800 140.600 C 26.800 140.050,26.980 139.600,27.200 139.600 C 27.420 139.600,27.600 139.060,27.600 138.400 C 27.600 137.740,27.780 137.200,28.000 137.200 C 28.220 137.200,28.400 136.840,28.400 136.400 C 28.400 135.960,28.580 135.600,28.800 135.600 C 29.020 135.600,29.200 135.060,29.200 134.400 C 29.200 133.740,29.380 133.200,29.600 133.200 C 29.820 133.200,30.000 132.840,30.000 132.400 C 30.000 131.960,30.180 131.600,30.400 131.600 C 30.620 131.600,30.800 131.060,30.800 130.400 C 30.800 129.740,30.980 129.200,31.200 129.200 C 31.420 129.200,31.600 128.840,31.600 128.400 C 31.600 127.960,31.780 127.600,32.000 127.600 C 32.220 127.600,32.400 127.240,32.400 126.800 C 32.400 126.360,32.580 126.000,32.800 126.000 C 33.020 126.000,33.200 125.651,33.200 125.224 C 33.200 124.797,33.380 124.336,33.600 124.200 C 33.820 124.064,34.000 123.603,34.000 123.176 C 34.000 122.749,34.180 122.400,34.400 122.400 C 34.620 122.400,34.800 122.040,34.800 121.600 C 34.800 121.160,34.980 120.800,35.200 120.800 C 35.420 120.800,35.600 120.440,35.600 120.000 C 35.600 119.560,35.780 119.200,36.000 119.200 C 36.220 119.200,36.400 118.840,36.400 118.400 C 36.400 117.960,36.580 117.600,36.800 117.600 C 37.020 117.600,37.200 117.240,37.200 116.800 C 37.200 116.360,37.380 116.000,37.600 116.000 C 37.820 116.000,38.000 115.640,38.000 115.200 C 38.000 114.760,38.180 114.400,38.400 114.400 C 38.620 114.400,38.800 114.040,38.800 113.600 C 38.800 113.160,38.958 112.800,39.151 112.800 C 39.345 112.800,39.727 112.260,40.000 111.600 C 40.273 110.940,40.655 110.400,40.849 110.400 C 41.042 110.400,41.200 110.082,41.200 109.693 C 41.200 109.304,41.650 108.323,42.200 107.514 C 42.750 106.705,43.200 105.853,43.200 105.621 C 43.200 105.390,43.380 105.200,43.600 105.200 C 43.820 105.200,44.000 104.964,44.000 104.675 C 44.000 104.387,44.360 103.764,44.800 103.292 C 45.240 102.820,45.600 102.196,45.600 101.905 C 45.600 101.614,45.960 101.117,46.400 100.800 C 46.840 100.483,47.200 99.943,47.200 99.600 C 47.200 99.257,47.560 98.717,48.000 98.400 C 48.440 98.083,48.800 97.585,48.800 97.294 C 48.800 97.002,49.250 96.314,49.800 95.764 C 50.350 95.214,50.800 94.600,50.800 94.400 C 50.800 94.200,51.250 93.586,51.800 93.036 C 52.350 92.486,52.800 91.928,52.800 91.796 C 52.800 91.665,53.339 90.981,53.998 90.278 C 54.657 89.575,55.197 88.855,55.198 88.678 C 55.199 88.501,55.750 87.781,56.423 87.078 C 57.095 86.375,57.914 85.297,58.242 84.682 C 58.570 84.067,59.730 82.654,60.820 81.542 C 61.909 80.429,62.800 79.379,62.800 79.209 C 62.800 78.804,78.804 62.800,79.209 62.800 C 79.379 62.800,80.429 61.909,81.542 60.820 C 82.654 59.730,84.067 58.570,84.682 58.242 C 85.297 57.914,86.375 57.095,87.078 56.423 C 87.781 55.750,88.501 55.199,88.678 55.198 C 88.855 55.197,89.575 54.657,90.278 53.998 C 90.981 53.339,91.665 52.800,91.796 52.800 C 91.928 52.800,92.486 52.350,93.036 51.800 C 93.586 51.250,94.200 50.800,94.400 50.800 C 94.600 50.800,95.214 50.350,95.764 49.800 C 96.314 49.250,97.002 48.800,97.294 48.800 C 97.585 48.800,98.083 48.440,98.400 48.000 C 98.717 47.560,99.257 47.200,99.600 47.200 C 99.943 47.200,100.483 46.840,100.800 46.400 C 101.117 45.960,101.614 45.600,101.905 45.600 C 102.196 45.600,102.820 45.240,103.292 44.800 C 103.764 44.360,104.387 44.000,104.675 44.000 C 104.964 44.000,105.200 43.820,105.200 43.600 C 105.200 43.380,105.390 43.200,105.621 43.200 C 105.853 43.200,106.705 42.750,107.514 42.200 C 108.323 41.650,109.304 41.200,109.693 41.200 C 110.082 41.200,110.400 41.042,110.400 40.849 C 110.400 40.655,110.940 40.273,111.600 40.000 C 112.260 39.727,112.800 39.345,112.800 39.151 C 112.800 38.958,113.160 38.800,113.600 38.800 C 114.040 38.800,114.400 38.620,114.400 38.400 C 114.400 38.180,114.760 38.000,115.200 38.000 C 115.640 38.000,116.000 37.820,116.000 37.600 C 116.000 37.380,116.360 37.200,116.800 37.200 C 117.240 37.200,117.600 37.020,117.600 36.800 C 117.600 36.580,117.960 36.400,118.400 36.400 C 118.840 36.400,119.200 36.220,119.200 36.000 C 119.200 35.780,119.560 35.600,120.000 35.600 C 120.440 35.600,120.800 35.420,120.800 35.200 C 120.800 34.980,121.160 34.800,121.600 34.800 C 122.040 34.800,122.400 34.620,122.400 34.400 C 122.400 34.180,122.749 34.000,123.176 34.000 C 123.603 34.000,124.064 33.820,124.200 33.600 C 124.336 33.380,124.797 33.200,125.224 33.200 C 125.651 33.200,126.000 33.020,126.000 32.800 C 126.000 32.580,126.360 32.400,126.800 32.400 C 127.240 32.400,127.600 32.220,127.600 32.000 C 127.600 31.780,127.960 31.600,128.400 31.600 C 128.840 31.600,129.200 31.420,129.200 31.200 C 129.200 30.980,129.740 30.800,130.400 30.800 C 131.060 30.800,131.600 30.620,131.600 30.400 C 131.600 30.180,131.960 30.000,132.400 30.000 C 132.840 30.000,133.200 29.820,133.200 29.600 C 133.200 29.380,133.740 29.200,134.400 29.200 C 135.060 29.200,135.600 29.020,135.600 28.800 C 135.600 28.580,135.960 28.400,136.400 28.400 C 136.840 28.400,137.200 28.220,137.200 28.000 C 137.200 27.780,137.740 27.600,138.400 27.600 C 139.060 27.600,139.600 27.420,139.600 27.200 C 139.600 26.980,140.050 26.800,140.600 26.800 C 141.150 26.800,141.600 26.620,141.600 26.400 C 141.600 26.180,142.140 26.000,142.800 26.000 C 143.460 26.000,144.000 25.843,144.000 25.652 C 144.000 25.460,144.945 25.181,146.100 25.032 C 148.078 24.777,149.972 24.293,151.800 23.575 C 152.629 23.249,154.131 22.899,156.200 22.549 C 156.860 22.437,157.760 22.190,158.200 22.000 C 159.028 21.643,160.637 21.313,163.400 20.936 C 164.280 20.816,165.171 20.556,165.380 20.359 C 165.589 20.162,166.588 20.000,167.600 20.000 C 168.612 20.000,169.611 19.836,169.820 19.635 C 170.195 19.275,172.343 18.985,177.800 18.557 C 179.340 18.436,180.771 18.172,180.980 17.969 C 181.189 17.766,183.484 17.600,186.080 17.600 C 188.960 17.600,190.800 17.444,190.800 17.200 C 190.800 16.945,194.133 16.800,200.000 16.800 C 205.867 16.800,209.200 16.945,209.200 17.200 " stroke="none" fill="#2c3434" fill-rule="evenodd"></path></g></svg>